<svg width="16" height="16" viewBox="0 0 16 16" fill="none" xmlns="http://www.w3.org/2000/svg">
<path d="M15.9737 15.4454C15.3695 15.6213 14.8309 15.716 14.358 15.716C12.7816 15.716 11.7176 14.5257 11.179 12.1317H11.1133C9.81281 14.7151 7.98686 16 5.68801 16C3.96716 16 2.58785 15.3372 1.55008 13.9982C0.512315 12.6592 0 10.982 0 8.95311C0 6.58611 0.591133 4.69252 1.76026 3.21822C2.92939 1.74391 4.51888 1 6.52874 1C7.60591 1 8.578 1.31109 9.41872 1.91975C10.2594 2.54193 10.9031 3.40757 11.3498 4.53021H11.4023L12.335 1.28404H15.6979L12.8867 8.47971C13.202 10.1569 13.5304 11.3066 13.8982 11.9152C14.2135 12.5239 14.6601 12.835 15.2118 12.835C15.5271 12.835 15.7767 12.7809 16 12.6862L15.9737 15.4454ZM10.3777 8.35798C10.1018 6.82958 9.65517 5.63931 9.0509 4.82777C8.45977 4.00271 7.73727 3.59693 6.90969 3.59693C5.83251 3.59693 4.96552 4.09739 4.32184 5.08476C3.67816 6.08566 3.38916 7.3165 3.38916 8.76375C3.38916 10.0893 3.63875 11.1849 4.20361 12.0775C4.75534 12.9702 5.5041 13.4031 6.43678 13.4031C7.22496 13.4031 7.94745 13.0108 8.59113 12.2669C9.24795 11.4959 9.78654 10.3733 10.22 8.89901L10.3777 8.35798Z" fill="white"/>
</svg>
