<svg width="16" height="16" viewBox="0 0 16 16" fill="none" xmlns="http://www.w3.org/2000/svg">
<g clip-path="url(#clip0_521_702)">
<path d="M11.8 2.34996L11.911 2.44896C12.0543 2.59029 12.1633 2.74763 12.238 2.92096L12.263 2.90796C12.5351 2.76139 12.8444 2.69839 13.1521 2.72685C13.4599 2.75531 13.7524 2.87397 13.993 3.06796L14.103 3.16796C14.603 3.65796 14.692 4.39796 14.368 4.97796L14.354 4.99996C14.4873 5.05796 14.6106 5.13263 14.724 5.22396L14.836 5.32296C15.336 5.81296 15.424 6.55296 15.1 7.13296L15.086 7.15496C15.2193 7.21296 15.3426 7.28763 15.456 7.37896L15.568 7.47896C16.175 8.07296 16.175 9.03896 15.568 9.63896L10.438 14.669C9.55711 15.5296 8.37448 16.0114 7.14298 16.0114C5.91148 16.0114 4.72886 15.5296 3.84798 14.669L2.38798 13.229C1.956 12.8082 1.61266 12.3052 1.37823 11.7495C1.1438 11.1939 1.02302 10.597 1.02302 9.99396C1.02302 9.39092 1.1438 8.79398 1.37823 8.23837C1.61266 7.68276 1.956 7.17973 2.38798 6.75896L5.68798 3.52896C5.98278 3.24305 6.37731 3.08315 6.78798 3.08315C7.19865 3.08315 7.59319 3.24305 7.88798 3.52896C7.99465 3.63429 8.08265 3.74929 8.15198 3.87396L8.18998 3.94996L9.71998 2.44996C9.99623 2.18129 10.3611 2.02284 10.7461 2.00442C11.131 1.986 11.5093 2.10889 11.81 2.34996H11.8ZM10.45 3.16696L5.31998 8.19696C4.83198 8.67596 4.09998 7.95796 4.58798 7.47896L7.14798 4.96896C7.19606 4.92235 7.23429 4.86655 7.2604 4.80488C7.28651 4.74321 7.29996 4.67693 7.29996 4.60996C7.29996 4.54299 7.28651 4.47671 7.2604 4.41504C7.23429 4.35337 7.19606 4.29757 7.14798 4.25096C7.04998 4.15566 6.91868 4.10235 6.78198 4.10235C6.64529 4.10235 6.51398 4.15566 6.41598 4.25096L3.11598 7.48096C2.77879 7.8073 2.51066 8.19813 2.32755 8.63018C2.14443 9.06223 2.05007 9.5267 2.05007 9.99596C2.05007 10.4652 2.14443 10.9297 2.32755 11.3617C2.51066 11.7938 2.77879 12.1846 3.11598 12.511L4.57598 13.951C5.26251 14.6194 6.18282 14.9934 7.14098 14.9934C8.09914 14.9934 9.01946 14.6194 9.70598 13.951L14.836 8.92096C14.8841 8.87434 14.9223 8.81855 14.9484 8.75688C14.9745 8.69521 14.988 8.62893 14.988 8.56196C14.988 8.49499 14.9745 8.42871 14.9484 8.36704C14.9223 8.30537 14.8841 8.24957 14.836 8.20296C14.738 8.10766 14.6067 8.05435 14.47 8.05435C14.3333 8.05435 14.202 8.10766 14.104 8.20296L11.904 10.363C11.443 10.815 10.764 10.2 11.101 9.72596L11.171 9.64396L14.101 6.77396C14.1491 6.72735 14.1873 6.67155 14.2134 6.60988C14.2395 6.54821 14.253 6.48193 14.253 6.41496C14.253 6.34799 14.2395 6.28171 14.2134 6.22004C14.1873 6.15837 14.1491 6.10257 14.101 6.05596C14.003 5.96066 13.8717 5.90735 13.735 5.90735C13.5983 5.90735 13.467 5.96066 13.369 6.05596L10.439 8.92596C9.97898 9.37796 9.29898 8.76296 9.63598 8.28896L9.70598 8.20696L13.366 4.61696C13.4141 4.57035 13.4523 4.51455 13.4784 4.45288C13.5045 4.39121 13.518 4.32493 13.518 4.25796C13.518 4.19099 13.5045 4.12471 13.4784 4.06304C13.4523 4.00137 13.4141 3.94557 13.366 3.89896C13.268 3.80396 13.1369 3.75083 13.0005 3.75083C12.864 3.75083 12.7329 3.80396 12.635 3.89896L8.97498 7.48896C8.48698 7.96896 7.75498 7.24996 8.24298 6.77096L11.173 3.90096C11.2211 3.85435 11.2593 3.79855 11.2854 3.73688C11.3115 3.67521 11.325 3.60893 11.325 3.54196C11.325 3.47499 11.3115 3.40871 11.2854 3.34704C11.2593 3.28537 11.2211 3.22957 11.173 3.18296C11.075 3.08766 10.9437 3.03435 10.807 3.03435C10.6703 3.03435 10.539 3.08766 10.441 3.18296L10.45 3.16696ZM9.62498 0.176958L10.493 0.465958L10.663 0.380958C10.9215 0.250631 11.2124 0.198439 11.5001 0.23076C11.7878 0.263082 12.0598 0.378518 12.283 0.562958L12.393 0.662958L12.883 1.15296C12.9703 1.24795 13.0175 1.37302 13.0147 1.50202C13.012 1.63101 12.9595 1.75394 12.8682 1.84511C12.7769 1.93628 12.6539 1.98863 12.5249 1.99121C12.3959 1.99379 12.2709 1.9464 12.176 1.85896L11.686 1.36896C11.6117 1.2949 11.516 1.24607 11.4125 1.22938C11.3089 1.21269 11.2028 1.22898 11.109 1.27596L10.754 1.45396C10.6952 1.48334 10.6312 1.50085 10.5657 1.50548C10.5001 1.51011 10.4343 1.50178 10.372 1.48096L9.31198 1.12596C9.24365 1.10312 9.17119 1.09531 9.09956 1.10308C9.02793 1.11085 8.95883 1.134 8.89698 1.17096L6.78698 2.43096C6.70583 2.47985 6.61246 2.50468 6.51774 2.50256C6.42302 2.50043 6.33086 2.47144 6.25198 2.41896L5.43398 1.87396C5.33785 1.80976 5.22244 1.78085 5.1074 1.79215C4.99235 1.80346 4.88478 1.85427 4.80298 1.93596L1.59298 5.14596C1.41496 5.32279 1.27373 5.53313 1.17744 5.76484C1.08116 5.99655 1.03172 6.24504 1.03198 6.49596C1.03198 6.62857 0.979304 6.75574 0.885536 6.84951C0.791768 6.94328 0.664591 6.99596 0.531982 6.99596C0.399374 6.99596 0.272197 6.94328 0.178429 6.84951C0.0846608 6.75574 0.0319824 6.62857 0.0319824 6.49596C0.0319824 5.72296 0.338982 4.98596 0.885982 4.43596L4.09598 1.22596C4.34067 0.980819 4.66283 0.828176 5.0075 0.794073C5.35218 0.75997 5.698 0.846521 5.98598 1.03896L6.54098 1.40896L8.37098 0.308958C8.55711 0.197316 8.76511 0.127109 8.98082 0.103122C9.19653 0.0791354 9.41488 0.101932 9.62098 0.169958L9.62498 0.176958Z" fill="white"/>
</g>
<defs>
<clipPath id="clip0_521_702">
<rect width="16" height="16" fill="white"/>
</clipPath>
</defs>
</svg>
