<svg width="10" height="16" viewBox="0 0 10 16" fill="none" xmlns="http://www.w3.org/2000/svg">
<g clip-path="url(#clip0_521_720)">
<path d="M-1.54629e-05 2C-1.54629e-05 1.44687 0.446859 1 0.999985 1H9.24998C9.66561 1 9.99998 1.33437 9.99998 1.75C9.99998 2.16562 9.66561 2.5 9.24998 2.5H6.85311C7.40623 3.11875 7.79373 3.89375 7.93748 4.75H9.24998C9.66561 4.75 9.99998 5.08437 9.99998 5.5C9.99998 5.91563 9.66561 6.25 9.24998 6.25H7.93748C7.61248 8.19375 6.03748 9.71562 4.06873 9.96562L8.58123 13.1875C9.03123 13.5094 9.13436 14.1344 8.81248 14.5813C8.49061 15.0281 7.86561 15.1344 7.41873 14.8125L0.418735 9.8125C0.0656095 9.5625 -0.0843905 9.10938 0.0468595 8.69375C0.17811 8.27813 0.56561 8 0.999985 8H3.49998C4.61873 8 5.56561 7.26562 5.88436 6.25H0.749985C0.33436 6.25 -1.54629e-05 5.91563 -1.54629e-05 5.5C-1.54629e-05 5.08437 0.33436 4.75 0.749985 4.75H5.88436C5.56561 3.73438 4.61873 3 3.49998 3H0.999985C0.446859 3 -1.54629e-05 2.55313 -1.54629e-05 2Z" fill="white"/>
</g>
<defs>
<clipPath id="clip0_521_720">
<rect width="10" height="16" fill="white"/>
</clipPath>
</defs>
</svg>
