<?xml version="1.0" encoding="UTF-8"?>
<svg id="Capa_2" data-name="Capa 2" xmlns="http://www.w3.org/2000/svg" viewBox="0 0 20.11 52.83">
  <g id="Capa_1-2" data-name="Capa 1">
    <path d="M5.28,17.24c-.21-.47-.57-1.19-.84-1.74-.22-.48-.29-.48-.2-.77.28-.79.31-1.64.77-2.24.45-.61.23-.83.28-1.68-.03-.7.02-.75.38-1.12.83-1.07,1.01-.38,2.29-.67,0-.21-.21-1.19-.72-.86-.48.26-.99.58-1.43.27-.28-.34-.44-.61-.54-1.1-.07-.43-.41-.37-.57-.59-.19-.34.38-.77.32-1.11-.15-.58-.54-1.15-.49-1.73.08-.63.48-1,.89-1.41.45-.47,1.35-1.03,1.97-1.31.55-.55.88-.74,1.57-1.15.44-.12.66.07.96.3.25.08.65-.07.91.15.39.28.38.77.86,1,.17.32.34.44.65.59.15.11.13.3.25.47.31.41.12,1.13.16,1.62-.03.23.1.99-.05,1.22-.12.17-.5.06-.69.12-.22.12-.36.37-.66.46-1.05.5-.83,2.04-.16,2.76,1.31.87,2.65,1.81,3.7,2.97.22.21.22.25.4.59.53,1.06.97,1.9,1.53,2.95.37.64.47,1.02.76,1.63.24.59.69,1.3.49,1.86-.24.43-.73.94-1.16,1.31-.4.34-.77.69-1.15,1.04-.25.25-.4.35-.38.7.43,2.02,1.27,3.87,1.55,5.92.07.94.4,1.53.64,2.38.29.92.36,1.67.59,2.63.32,1.53.68,2.8.82,4.28.04.25.26.58.24.79-.01.28-.57.39-.61.66.19,1.19.95,2.74,1.14,3.89,0,.55-.05,1.43.19,1.97.44.44-.13.79-.61.74-.34.04-.67,0-.6.25.11.84.15,2.05.33,2.84.19.7.59,1.33.7,1.94-.61.79-2.55.39-3.38.5-.06.54.33,1.69.56,2.2-2.58.08-10.03.03-12.46.07-.36-.03-.5.07-.58-.06-.11-.17-.3-.61-.06-.84.2-.29.53-.56.6-.79.03-.16-.17-.28-.38-.4-.99-.65.25-1.04.39-1.5-.03-.15-.52-.1-.52-.4-.05-.25.02-.52-.14-.63-.64-.33-1.48-.45-2.16-.8-.76-.25-.4-.42-.36-.95-.02-.18-.18-.31-.15-.43.11-.24,1.01-1.53,1.34-2.05.27-.26.03-.37-.13-.69-.1-.24.08-.71.03-.87-.26-.32-1.48-.6-1.91-.85-.28-.13-.45-.14-.47-.29-.06-.32.2-.47.32-.63-.01-.14-.49-.43-.24-.67.13-.19.43-.28.51-.46.09-.18-.09-.47,0-.6.11-.16.51-.09.58-.21.07-.08.17-.29.33-.57.43-.85.94-1.54,1.2-2.29.2-.72.43-1.32.35-2.09,0-.59-.02-1.39-.03-1.8,0-.24,0-.32-.14-.45-.13-.11-.34-.31-.36-.5-.05-.31.24-.67.25-.86.07-.66-.13-1.91.08-2.66.08-.26.2-.67.25-.84.14-.91,0-2.42.11-3.35.13-.49.14-1.49.41-1.99.17-.35.6-.98.69-1.36.06-.25.1-.73.18-.88.1-.21.63-.63.82-.96.06-.18-.01-.64-.02-.77l-.02-.07Z"/>
  </g>
</svg>