<svg width="24" height="24" viewBox="0 0 24 24" fill="none" xmlns="http://www.w3.org/2000/svg">
<path fill-rule="evenodd" clip-rule="evenodd" d="M12.75 18.96V22H11.25V18.96C9.53323 18.775 7.94541 17.962 6.79173 16.6773C5.63806 15.3925 4.99993 13.7267 5 12V10H6.5V12C6.5 13.4587 7.07946 14.8576 8.11091 15.8891C9.14236 16.9205 10.5413 17.5 12 17.5C13.4587 17.5 14.8576 16.9205 15.8891 15.8891C16.9205 14.8576 17.5 13.4587 17.5 12V10H19V12C19.0001 13.7267 18.3619 15.3925 17.2083 16.6773C16.0546 17.962 14.4668 18.775 12.75 18.96ZM8 6C8 4.93913 8.42143 3.92172 9.17157 3.17157C9.92172 2.42143 10.9391 2 12 2C13.0609 2 14.0783 2.42143 14.8284 3.17157C15.5786 3.92172 16 4.93913 16 6V12C16 13.0609 15.5786 14.0783 14.8284 14.8284C14.0783 15.5786 13.0609 16 12 16C10.9391 16 9.92172 15.5786 9.17157 14.8284C8.42143 14.0783 8 13.0609 8 12V6Z" fill="white"/>
</svg>
