<svg width="16" height="16" viewBox="0 0 16 16" fill="none" xmlns="http://www.w3.org/2000/svg">
<path d="M7.71877 0.916748V1.6355H7.00002V2.198H7.71877V3.15769C7.81384 3.14331 7.90771 3.1355 8.00002 3.1355C8.09234 3.1355 8.18621 3.14331 8.28127 3.15769V2.198H9.00002V1.6355H8.28127V0.916748H7.71877ZM8.00002 3.698C7.93346 3.698 7.86002 3.70681 7.78127 3.72315V13.4044C7.92746 13.3996 8.07259 13.3996 8.21877 13.4044V3.72315C8.14002 3.70681 8.06659 3.698 8.00002 3.698ZM7.21871 3.92669C6.67215 4.191 6.01377 4.66825 5.40584 5.27419C4.45915 6.21787 3.60552 7.44872 3.26784 8.50256C2.70346 10.2636 3.23127 12.1828 4.15609 14.0887C5.52634 13.7469 6.43171 13.5327 7.21871 13.4455V3.92669ZM8.78134 3.92669V13.4455C9.56831 13.5327 10.4737 13.7469 11.844 14.0887C12.7688 12.1827 13.2966 10.2636 12.7322 8.50253C12.3945 7.44869 11.5409 6.21784 10.5942 5.27419C9.98627 4.66825 9.32787 4.19097 8.78134 3.92669ZM8.00002 13.948C7.8819 13.948 7.76384 13.949 7.64615 13.9508C6.84346 14.0005 5.94543 14.2203 4.4084 14.6046L4.64768 15.0832C7.82977 14.1771 8.17027 14.1771 11.3524 15.0832L11.5916 14.6046C10.0546 14.2202 9.15659 14.0004 8.3539 13.9507C8.23621 13.949 8.11812 13.9479 8.00002 13.9479V13.948Z" fill="white"/>
</svg>
