<?xml version="1.0" encoding="UTF-8"?>
<svg id="Capa_2" data-name="Capa 2" xmlns="http://www.w3.org/2000/svg" viewBox="0 0 42.32 58.11">
  <g id="Capa_1-2" data-name="Capa 1">
    <path d="M.2,55.52c.4.51,1.19,1.51,1.92,1.89.46.28.76.66,1,.55.53-.35,1-1.27,1.49-1.66.3-.22,1.54.5,1.89.41,1.79-2.03,3.3-4.4,5.03-6.66,1.85-2.5,3.63-4.92,4.49-5.81.06-.04.13.01.21.15.37.58.76,1.62,1.43,1.94.59.49,1.57.14,2.33.35.16.19.05.86.09,1.16-.1,2.16-.03,1.6,1.99,1.6,1.23-.03,2.14-.11,2.99.57.17.23-.08.63-.18.99-.56,1.54-1,3.23-1.4,4.78-.15.65-.27,1.49-.18,2.24.08.12.63.06,1.27.07.65-.03,1.15.08,1.33-.11.18-.25.29-.56.54-.74.53-.16,1.92.4,2.51-.08.55-.21.75-.88.79-1.34-.02-.21-.53-.22-1.04-.34-.53-.12-.84-.12-.91-.37-.42-1.92.98-4.41,1.2-6.1.56-2.89,1.02-5.92,1.18-8.91.06-.42.01-.97.17-1.31.18-.22.74-.5,1.38-.92.67-.47,1.21-.67,1.58-1.08.09-.34,0-.58,0-1.02-.64-8.32-.79-13.86-2.26-20.68.13-.54,2.13-.82,2.3-1.43.09-.29-.04-.74.16-.95.48-.36,1.55-.36,2.05-.76.63-.42,1.23-1.19,1.85-1.46.56-.25,1.41-.34,2.08-.68.37-.28.58-1.43.95-1.78.37-.23,1.35.41,1.72.14.22-.49-.97-.53-1.24-.75-.22-.12-.33-.32-.15-.41.34-.1.89-.04,1.2-.28.45-.28.22-.54-.24-.34-.19.05-.63.2-.67-.08-.03-.26.59-.36.94-.45.35-.05.53-.32.11-.34-.27-.05-1.1.21-1.18-.14.04-.45,1.55-1.05,1.39-1.57-.12-.17-.54.24-.8.45-.53.51-1.41.82-2.1.6-.54-.18-1.02-1.67-1.73-1.48-.22.43.69,1.34.76,1.65.23.44.15,1.3-.27,1.69-1.16.44-3.73.21-4.87.71-.56.42-1.29.71-1.7,1.28-.3.54-.47.96-1.11,1.23-.77.54-1.36-.28-2,.48-.15.14-.34.28-.53.36-.42.01-1.24-.27-1.52-.72-.47-.68-1.38-1.6-.75-2.41.46-.53,1.46-.93,1.52-1.68-.03-.54-.75-1.65-.8-2.18.05-.22.2-.34.11-.56-.11-.19-.5-.26-.85-.36-.52-.11-.46-.56-.69-.88-.45-.45-1.37-.32-.74-1.12.3-.92-1.03-.85-1.64-.84-.95-.15-1.68.52-2.44.92-1.27.6-2.17,1.63-2.02,3.09.01,1.58.1,3.22.37,4.79.32,1.61,1.96.03,2.85.1.02.85-1.22,1.34-1.98,1.63-1.03.3-2.06.5-3.05.22-.09.02-.27.05-.35.06-.45.16-.37.84-.62,1.08-.18.17-.54.27-.68.53-.17.29-.24.73-.3,1.07-.15,3.25-.14,8.42-.3,11.75-.43,4.19-1.38,8.72-2.71,12.43-.13.28-.32.57-.38.85-.18.64,1.12,1.12.78,1.8-.24.44-.43,1.2-.74,1.57-.95.71-1.86,1.72-2.65,2.7-1.06,1.75-2.03,3.86-3.14,5.47-.21.34-.21.83-.43,1.13-.62.71-1.73,1.54-2.31,2.18-.32.22-.14,1.04-.55,1.22-.51.21-1.41.06-1.82.44-.21.16-.07.35.03.43l.06.06Z"/>
  </g>
</svg>