<svg width="24" height="24" viewBox="0 0 24 24" fill="none" xmlns="http://www.w3.org/2000/svg">
<path d="M12 10.9999L11 3.72794C11 3.26194 11.185 2.81494 11.515 2.48494C12.539 1.46094 14.292 2.04494 14.497 3.47894L16 9.99994L17.508 3.67194C17.6286 3.26288 17.9001 2.91491 18.2675 2.69843C18.635 2.48194 19.0709 2.41312 19.4872 2.50587C19.9034 2.59863 20.2689 2.84604 20.5097 3.19805C20.7504 3.55006 20.8485 3.98038 20.784 4.40194L19 15.9999" stroke="white" stroke-width="2" stroke-linecap="round" stroke-linejoin="round"/>
<path d="M19 16C18.464 20 15.642 22 11.5 22C7.358 22 4 20 4 16" stroke="white" stroke-width="2"/>
<path d="M4 16V12C4 11.4696 4.21071 10.9609 4.58579 10.5858C4.96086 10.2107 5.46957 10 6 10C6.53043 10 7.03914 10.2107 7.41421 10.5858C7.78929 10.9609 8 11.4696 8 12M12 13V11C12 10.4696 11.7893 9.96086 11.4142 9.58579C11.0391 9.21071 10.5304 9 10 9C9.46957 9 8.96086 9.21071 8.58579 9.58579C8.21071 9.96086 8 10.4696 8 11V15" stroke="white" stroke-width="2" stroke-linecap="round" stroke-linejoin="round"/>
<path d="M13.692 17H11C10.4696 17 9.96086 16.7893 9.58579 16.4142C9.21071 16.0391 9 15.5304 9 15C9 14.4696 9.21071 13.9609 9.58579 13.5858C9.96086 13.2107 10.4696 13 11 13H15C17.21 13 19.5 15 18.5 18" stroke="white" stroke-width="2" stroke-linecap="round" stroke-linejoin="round"/>
</svg>
