<svg width="16" height="16" viewBox="0 0 16 16" fill="none" xmlns="http://www.w3.org/2000/svg">
<path d="M15.3311 0.515625C14.8709 2.80834 14.166 4.86188 13.2032 6.68947C12.5422 7.49059 11.2556 7.9915 9.96784 7.76369C11.3341 5.86316 12.0264 3.46728 11.7413 0.957031C11.2236 2.80234 10.6418 4.32816 9.9014 5.6465C9.40847 6.17094 8.55747 6.46009 7.68172 6.19531C8.68306 4.82812 9.19381 3.095 8.98734 1.27734C8.66403 2.31313 8.24197 3.27172 7.72756 4.15528C7.28787 4.64828 6.50778 4.92778 5.70122 4.69234C6.37209 3.76478 6.71372 2.59381 6.57428 1.36619C6.3185 1.95441 6.02547 2.514 5.69731 3.04487C5.26747 3.40856 4.29294 3.32706 3.55962 3.07319L3.52744 3.04881C3.90515 2.484 4.05547 1.75459 3.89165 0.961844C3.76223 1.30748 3.60346 1.64141 3.41709 1.95997C3.08625 2.49528 2.20184 2.08066 1.62022 1.68553C2.11731 2.15163 2.64584 2.96403 2.16319 3.51459C1.901 3.75891 1.6185 3.98778 1.31647 4.20016C2.04625 4.17969 2.67297 3.92297 3.13287 3.50578C3.83562 4.12353 3.99609 5.07297 3.65437 5.56441C3.25361 5.94674 2.82927 6.30356 2.38384 6.63278C3.54953 6.50075 4.56872 5.95741 5.31353 5.16403L5.3575 5.19919C5.72759 5.91731 5.62319 6.71744 5.24131 7.23631C4.51928 7.89663 3.71737 8.48725 2.83894 9.00778C4.62881 8.80503 6.18325 7.94097 7.28719 6.68747L7.31937 6.71287C7.75306 7.51319 7.64244 8.41537 7.21587 8.99606C6.11969 9.97934 4.79044 10.869 3.14362 11.7656C5.653 11.4814 7.83159 10.2689 9.37603 8.50872C9.98053 9.73553 9.75303 11.0975 9.05572 11.9297C7.49362 13.285 5.65215 14.4257 3.51769 15.3662C10.8788 14.5323 16.168 7.88328 15.331 0.515625H15.3311Z" fill="white"/>
</svg>
