<svg width="16" height="16" viewBox="0 0 16 16" fill="none" xmlns="http://www.w3.org/2000/svg">
<path d="M11.9975 2.41504C14.935 4.82504 15.3455 9.13204 12.917 12.0425C10.49 14.9505 6.05902 15.3235 3.12452 12.9165L2.24702 12.1965C2.18294 12.1444 2.12988 12.08 2.09094 12.0071C2.05199 11.9342 2.02793 11.8543 2.02016 11.772C2.01238 11.6898 2.02106 11.6068 2.04567 11.5279C2.07028 11.449 2.11035 11.3758 2.16352 11.3125L10.1805 1.74104C10.2887 1.61254 10.4431 1.53182 10.6103 1.51638C10.7776 1.50094 10.9442 1.55201 11.074 1.65854L11.9975 2.41504ZM11.01 2.91854C12.661 5.08604 12.6605 8.17404 10.836 10.353C9.02902 12.5105 6.00402 13.0935 3.55802 11.9365C3.58919 12.0416 3.65535 12.1328 3.74552 12.195C6.25902 13.935 9.73002 13.492 11.717 11.0945C13.7045 8.69654 13.4955 5.20404 11.319 3.05704C11.2363 2.97487 11.1264 2.92564 11.01 2.91854ZM7.69152 6.27254L10.442 6.58604C10.962 6.64504 11.3905 6.18254 11.281 5.67604C11.097 4.82457 10.6894 4.03755 10.1 3.39604L7.69152 6.27254ZM6.84752 7.60504L7.77502 10.558C7.80969 10.6668 7.86812 10.7664 7.94608 10.8498C8.02404 10.9331 8.11958 10.998 8.22575 11.0399C8.33193 11.0817 8.44608 11.0994 8.55994 11.0916C8.6738 11.0839 8.7845 11.0509 8.88402 10.995C9.92995 10.405 10.7257 9.4548 11.123 8.32154C11.282 7.86454 10.9685 7.37954 10.4835 7.32454L7.37852 6.97054C7.25639 6.95657 7.13339 6.98807 7.03302 7.05904L6.87152 7.25154C6.81873 7.362 6.81015 7.48846 6.84752 7.60504ZM3.80402 10.9145C4.55343 11.3698 5.40938 11.62 6.28602 11.64C6.40693 11.6436 6.52694 11.6182 6.63607 11.566C6.7452 11.5138 6.8403 11.4363 6.91345 11.34C6.98661 11.2437 7.03571 11.1313 7.05668 11.0121C7.07765 10.893 7.06988 10.7706 7.03402 10.655L6.21202 8.03854L3.80402 10.9145Z" fill="white"/>
</svg>
