<svg width="24" height="24" viewBox="0 0 24 24" fill="none" xmlns="http://www.w3.org/2000/svg">
<path d="M15.15 18.68C15.1247 18.7477 15.1247 18.8223 15.15 18.89C15.1743 18.9192 15.2049 18.9425 15.2396 18.9581C15.2743 18.9737 15.312 18.9812 15.35 18.98C15.3839 18.9795 15.4173 18.9722 15.4482 18.9585C15.4791 18.9447 15.507 18.9248 15.53 18.9L19.53 14.72C19.8366 14.3456 19.9824 13.865 19.9355 13.3834C19.8887 12.9018 19.653 12.4583 19.28 12.15C18.944 11.8806 18.554 11.6867 18.1364 11.5814C17.7189 11.4762 17.2835 11.462 16.86 11.54C16.8094 11.5453 16.7617 11.5666 16.724 11.6007C16.6862 11.6349 16.6603 11.6802 16.65 11.73L15.15 18.68ZM7.29999 11.75C7.2916 11.6983 7.26653 11.6508 7.22862 11.6147C7.1907 11.5786 7.14202 11.5559 7.08999 11.55C6.66775 11.4756 6.23467 11.4897 5.81813 11.5912C5.40159 11.6928 5.01064 11.8797 4.66999 12.14C4.48247 12.2969 4.32791 12.4894 4.21524 12.7064C4.10257 12.9233 4.03403 13.1605 4.01357 13.4041C3.99311 13.6477 4.02115 13.893 4.09606 14.1257C4.17097 14.3585 4.29126 14.574 4.44999 14.76L8.36999 18.9C8.39301 18.9248 8.42084 18.9447 8.45178 18.9585C8.48272 18.9722 8.51614 18.9795 8.54999 18.98C8.5863 18.9797 8.6221 18.9715 8.65491 18.9559C8.68772 18.9404 8.71676 18.9179 8.73999 18.89C8.76487 18.8618 8.78244 18.8278 8.79116 18.7912C8.79988 18.7546 8.79948 18.7164 8.78999 18.68L7.29999 11.75ZM9.24999 20.5C7.76145 20.6044 6.3598 21.2395 5.29999 22.29C5.15955 22.4295 5.06368 22.6076 5.02452 22.8016C4.98535 22.9956 5.00466 23.1969 5.07999 23.38C5.15501 23.5626 5.28241 23.7189 5.44613 23.8293C5.60985 23.9396 5.80257 23.999 5.99999 24H18C18.1963 23.9998 18.3882 23.9419 18.5518 23.8334C18.7154 23.725 18.8434 23.5707 18.92 23.39C18.9957 23.2101 19.0171 23.012 18.9815 22.8201C18.946 22.6282 18.8551 22.4509 18.72 22.31C17.6632 21.223 16.2341 20.5763 14.72 20.5C14.28 20.47 9.73999 20.47 9.24999 20.5ZM8.99999 3C8.99999 3.79565 9.31606 4.55871 9.87867 5.12132C10.4413 5.68393 11.2043 6 12 6C12.7956 6 13.5587 5.68393 14.1213 5.12132C14.6839 4.55871 15 3.79565 15 3C15 2.20435 14.6839 1.44129 14.1213 0.87868C13.5587 0.31607 12.7956 0 12 0C11.2043 0 10.4413 0.31607 9.87867 0.87868C9.31606 1.44129 8.99999 2.20435 8.99999 3ZM15.77 9C15.7892 8.91148 15.7846 8.81942 15.7565 8.7333C15.7283 8.64718 15.6778 8.5701 15.61 8.51C15.5403 8.45153 15.456 8.41319 15.3661 8.39909C15.2762 8.38499 15.1842 8.39568 15.1 8.43C13.1074 9.23043 10.8826 9.23043 8.88999 8.43C8.80487 8.39701 8.71234 8.38796 8.62243 8.40383C8.53253 8.41969 8.44868 8.45987 8.37999 8.52C8.31305 8.57831 8.26358 8.65405 8.2371 8.73878C8.21062 8.82352 8.20816 8.91395 8.22999 9L10.4 18.79C10.4148 18.843 10.4459 18.8899 10.4891 18.9241C10.5322 18.9582 10.585 18.9778 10.64 18.98H13.35C13.4067 18.9799 13.4618 18.9613 13.5069 18.927C13.552 18.8927 13.5847 18.8446 13.6 18.79L15.77 9Z" fill="white"/>
</svg>
