<?xml version="1.0" encoding="UTF-8"?>
<svg id="Capa_2" data-name="Capa 2" xmlns="http://www.w3.org/2000/svg" viewBox="0 0 127.66 127.66">
  <g id="Capa_1-2" data-name="Capa 1">
    <path d="M69.04,88.75h1.79c.06,0,.13-.13.13-.23,0-.31-.11-.75-.09-1.15.58-12.19,3.29-26.17,14.25-33.34,7.39-4.84,16.83-4.2,21.85,3.59,7.64,11.85-3.75,26.47-17.22,22.12-3.52-1.14-6.63-4.27-6.62-8.14,1.37.91,3.18,1.49,4.82,1.2,5.08-.91,4.01-9.17-1.79-8.12-3.83.69-6.41,4.79-7.66,8.17-1.85,5-2.24,10.61-2.22,15.91h9.19v8.37h-15.42c.47,6.51,5.55,11.71,11.06,14.62.95.5,2.13.88,3,1.39.07.04.19-.02.12.16-.22.6-1.99,1.7-2.61,1.99-2.84,1.3-7,1.45-9.84.12-.7,4.49-3.67,8.09-7.92,9.66-4.12-1.56-7.2-5.14-7.81-9.56-3.6,1.31-8.87,1.17-11.85-1.48-.16-.14-.95-.81-.58-.89,6.85-2.7,13.35-8.27,14.17-16.01h-15.42v-8.37h9.04c.28,0,.05-.69.05-.86-.2-6.79-1.04-20.11-8.75-22.91-3.5-1.27-6.96,1.05-6,4.88s5.43,3.57,8.02,1.74c-.32,5.31-4.81,8.27-9.75,8.78-15.76,1.62-22.62-18.49-10.03-26.98,8.68-5.86,18.7-.61,24.22,6.87,5.95,8.06,7.62,18.65,7.72,28.48h1.84c.06-9.83-1.1-19.84-5.77-28.6-2.85-5.35-6.84-9.64-8.26-15.74-2.44-10.5,1.87-20.61,7.81-29.02,3.26-4.6,7.16-8.87,11.37-12.61,3.04,2.62,5.88,5.6,8.42,8.72,7.52,9.2,13.87,21.47,10.62,33.69-1.55,5.81-5.71,10.33-8.42,15.58-4.42,8.57-5.5,18.43-5.46,27.99Z"/>
  </g>
</svg>