<svg width="16" height="16" viewBox="0 0 16 16" fill="none" xmlns="http://www.w3.org/2000/svg">
<path d="M3.53999 3.2295C3.6688 3.0076 3.85363 2.82343 4.07598 2.6954C4.29833 2.56738 4.55041 2.5 4.80699 2.5H11.192C11.7095 2.5 12.1985 2.77 12.461 3.231L15.366 8.2565C15.4965 8.48553 15.5328 8.75635 15.4672 9.01167C15.4016 9.26698 15.2392 9.48676 15.0145 9.6245L15.008 9.629L13.144 10.7L13.1425 10.701C13.0081 10.7789 12.8575 10.8244 12.7025 10.8339C12.5475 10.8435 12.3924 10.8168 12.2495 10.756V13.1705C12.2495 13.6165 11.893 14 11.422 14H4.58249C4.36209 14.0001 4.15064 13.9128 3.99456 13.7572C3.83847 13.6016 3.75052 13.3904 3.74999 13.17V10.756C3.60709 10.8168 3.45199 10.8435 3.29699 10.8339C3.14199 10.8244 2.99134 10.7789 2.85699 10.701L2.85599 10.7L1.00299 9.6325L1.00099 9.631C0.7707 9.49742 0.602823 9.27793 0.534204 9.0207C0.465585 8.76347 0.501831 8.48953 0.634986 8.259L0.635986 8.2575L3.53999 3.2295ZM9.54549 3.5L7.99999 6.785L6.45399 3.5H5.48699L7.51649 7.8125L7.39899 8.0625H8.36599L10.513 3.5H9.54549ZM8.91799 8.0625H11.25V7.4475L11.683 8.1935C11.6991 8.21519 11.7127 8.23868 11.7235 8.2635L12.6345 9.831L12.635 9.8325L12.6365 9.8335L12.6375 9.834L12.639 9.835H12.6405L12.642 9.8355L12.6435 9.8345L14.4925 8.772C14.4962 8.7693 14.4988 8.76542 14.5 8.761V8.7575L14.499 8.7535L11.5925 3.726C11.5519 3.65623 11.4934 3.59852 11.4231 3.55881C11.3528 3.51909 11.2732 3.49879 11.1925 3.5H11.0655L8.91799 8.0625ZM6.89699 8.0625C6.89749 7.991 6.91349 7.919 6.94449 7.8525L6.96349 7.8125L4.93399 3.5H4.80749C4.72627 3.49982 4.64643 3.52091 4.5759 3.56117C4.50537 3.60144 4.44662 3.65947 4.40549 3.7295L1.50049 8.76V8.761C1.50049 8.76267 1.50099 8.76383 1.50199 8.7645L1.50399 8.7665L3.35849 9.835H3.35999L3.36399 9.833L3.36499 9.8315L3.36599 9.8305L4.74999 7.4315V8.0625H6.89699ZM4.74999 13H11.25V8.9375H9.01299L9.89599 10.8135C9.92048 10.8655 9.93449 10.9218 9.93721 10.9792C9.93994 11.0367 9.93133 11.094 9.91188 11.1481C9.89242 11.2022 9.8625 11.252 9.82383 11.2945C9.78516 11.337 9.73849 11.3715 9.68649 11.396C9.63448 11.4205 9.57816 11.4345 9.52075 11.4372C9.46333 11.44 9.40594 11.4313 9.35185 11.4119C9.29776 11.3924 9.24803 11.3625 9.2055 11.3238C9.16297 11.2852 9.12848 11.2385 9.10399 11.1865L8.04599 8.9375H7.95399L6.89599 11.1865C6.87149 11.2385 6.837 11.2852 6.79447 11.3238C6.75194 11.3625 6.70221 11.3924 6.64812 11.4119C6.59403 11.4313 6.53664 11.44 6.47922 11.4372C6.42181 11.4345 6.36549 11.4205 6.31349 11.396C6.26148 11.3715 6.21481 11.337 6.17614 11.2945C6.13747 11.252 6.10755 11.2022 6.0881 11.1481C6.06864 11.094 6.06003 11.0367 6.06276 10.9792C6.06549 10.9218 6.07949 10.8655 6.10399 10.8135L6.98699 8.9375H4.74999V13Z" fill="white"/>
</svg>
