<svg width="24" height="24" viewBox="0 0 24 24" fill="none" xmlns="http://www.w3.org/2000/svg">
<path d="M21 7V17C21 19.7614 18.7614 22 16 22H8C5.23858 22 3 19.7614 3 17V7C3 4.23858 5.23858 2 8 2H16C18.7614 2 21 4.23858 21 7Z" stroke="white" stroke-width="1.5"/>
<path d="M12 5V14" stroke="white" stroke-width="1.5" stroke-linecap="round" stroke-linejoin="round"/>
<path d="M12 14.332C11.047 14.332 10.143 14.227 9.329 14.038C8.454 13.835 7.5 14.475 7.5 15.405C7.5 15.89 7.766 16.34 8.207 16.504C8.531 16.6246 8.87633 16.7293 9.243 16.818C9.835 16.961 10.355 17.348 10.613 17.918L10.719 18.154C10.951 18.67 11.451 19 12 19C12.55 19 13.049 18.67 13.281 18.154L13.388 17.918C13.645 17.348 14.165 16.961 14.758 16.818C15.109 16.7342 15.4546 16.6293 15.793 16.504C16.233 16.34 16.5 15.89 16.5 15.404C16.5 14.475 15.546 13.834 14.671 14.038C13.858 14.227 12.953 14.332 12 14.332Z" stroke="white" stroke-width="1.5" stroke-linecap="round"/>
<path d="M15 7C14.613 7.619 14.084 8 13.5 8C12.916 8 12.387 7.619 12 7C11.613 7.619 11.084 8 10.5 8C9.916 8 9.387 7.619 9 7M7 10C7.644 10.619 8.527 11 9.5 11C10.473 11 11.356 10.619 12 10C12.644 10.619 13.527 11 14.5 11C15.473 11 16.356 10.619 17 10" stroke="white" stroke-width="1.5" stroke-linecap="round" stroke-linejoin="round"/>
</svg>
